PathFileType	4	(X/Y/Z)	C:/Users/alexw/Dropbox/ABI/BIOMENG 771 Files/BIOMENG_771/KinematicsLab/Right.trc	
DataRate	CameraRate	NumFrames	NumMarkers	Units	OrigDataRate	OrigDataStartFrame	OrigNumFrames	
120.00	120.00	15	8	mm	120.00	836	1623	
Frame#	Time	RAsis			LAsis			RPsis			LPsis			RThighInferior			RThighLateral			RPatella			RThighSuperior			
		X1	Y1	Z1	X2	Y2	Z2	X3	Y3	Z3	X4	Y4	Z4	X5	Y5	Z5	X6	Y6	Z6	X7	Y7	Z7	X8	Y8	Z8	

812	6.758	-381.89624	207.69049	1073.79529	-138.56799	153.86853	984.16974	-235.16006	390.07648	1005.26849	-182.37613	374.55060	992.57019	-492.17480	114.32453	654.05444	-442.95462	104.14819	746.07086	-469.33658	67.68317	566.50330	-457.78888	233.21086	869.04474 
813	6.767	-381.48920	207.16508	1074.21484	-138.22801	153.77608	984.04181	-235.29402	390.00082	1005.81274	-182.63226	374.50018	992.88239	-496.26334	114.02043	656.45636	-445.96973	104.21425	747.89978	-474.46494	67.59619	568.26111	-459.01715	233.17909	870.78912 
814	6.775	-381.06967	206.64799	1074.58350	-137.82062	153.73230	983.85992	-235.30788	389.93567	1006.38617	-182.86620	374.46432	993.20526	-500.49478	114.00232	659.06165	-449.03635	104.04346	749.85272	-479.94733	67.14432	570.31885	-459.98270	233.13667	872.52631 
815	6.783	-380.74124	206.22617	1075.03882	-137.52187	153.73494	983.64935	-235.30914	389.83917	1006.87256	-182.97905	374.43515	993.52014	-504.58530	113.59666	661.73810	-452.18695	103.81780	752.08612	-485.41956	67.03302	572.50323	-461.07693	233.12831	874.31403 
816	6.792	-380.35312	205.92290	1075.49780	-137.17218	153.67966	983.52570	-235.38643	389.78156	1007.40277	-183.04805	374.31628	993.74078	-509.12567	113.58349	664.67108	-455.40854	103.75970	754.24622	-491.06000	66.83603	574.81104	-462.23257	233.46896	876.44263 
817	6.800	-379.94608	205.50151	1075.99915	-136.72980	153.66257	983.33130	-235.34377	389.69958	1007.79840	-183.00293	374.31827	993.99786	-513.59747	113.48302	667.71039	-458.85455	103.71594	756.52637	-496.69531	66.66845	577.37689	-463.61078	233.67308	878.27454 
818	6.808	-379.43246	205.17978	1076.41492	-136.35901	153.69284	983.15302	-235.27631	389.58005	1008.19885	-182.96104	374.24576	994.27002	-518.16632	113.42573	670.73425	-462.16742	103.53564	758.96820	-502.44962	66.47338	579.90320	-464.97101	233.99678	880.71405 
819	6.817	-378.98816	204.80284	1076.72900	-136.01822	153.69135	982.83862	-235.22499	389.51236	1008.64838	-182.95509	374.17380	994.51898	-522.74969	113.26275	673.95563	-465.45413	103.46371	761.55768	-508.38037	66.25684	582.65228	-466.11743	234.10492	882.57605 
820	6.825	-378.39813	204.27696	1077.03638	-135.60033	153.64989	982.54651	-235.30702	389.37729	1008.99884	-182.96893	374.08093	994.73090	-527.27625	113.08514	677.04498	-468.79849	103.25417	763.89398	-514.25177	66.16367	585.28400	-467.26080	234.32397	884.71057 
821	6.833	-377.91629	203.71007	1077.44739	-135.10696	153.53958	982.25806	-235.20094	389.26151	1009.36365	-182.89240	374.00150	994.93469	-531.86926	112.85547	680.37543	-472.10532	103.06997	766.46472	-520.01740	65.77410	588.05780	-468.67499	234.61121	887.04547 
822	6.842	-377.35461	203.26814	1077.61548	-134.63721	153.43152	982.00745	-235.10313	389.16083	1009.75153	-182.81407	373.93585	995.11407	-536.41565	112.67701	683.76733	-475.48056	102.94982	769.07477	-526.00397	65.81018	591.02106	-469.72229	234.73451	889.02460 
823	6.850	-376.77658	202.82497	1077.87451	-134.25676	153.33502	981.70599	-234.99251	388.91574	1010.04547	-182.86917	373.79526	995.34503	-540.92352	112.37334	687.29456	-478.69635	102.64478	771.84174	-531.90216	65.44736	593.90564	-470.67102	234.84801	891.26239 
824	6.858	-376.21832	202.32411	1078.24756	-133.91383	153.18547	981.42169	-234.95258	388.77438	1010.33075	-182.79875	373.68002	995.51416	-545.49390	112.29545	690.82898	-481.97269	102.45552	774.53931	-537.65979	65.50177	596.80829	-471.81332	235.01813	893.54608 
825	6.867	-375.69278	201.92227	1078.59802	-133.39777	152.96761	981.05243	-234.89923	388.63129	1010.64471	-182.73526	373.57840	995.58752	-549.73914	112.14300	694.39532	-485.17477	102.28777	777.34052	-543.44727	65.59576	599.82123	-472.89563	235.12318	895.92120 
826	6.875	-375.23355	201.62114	1078.96997	-132.98671	152.80215	980.77014	-234.74690	388.51071	1010.94159	-182.61661	373.49362	995.78210	-554.13348	112.14704	697.96808	-488.41479	102.13457	780.07635	-549.10132	65.65134	602.98340	-473.99130	235.35286	898.02039 
